<svg width="1920" height="251" viewBox="0 0 1920 251" fill="none" xmlns="http://www.w3.org/2000/svg">
<g clip-path="url(#clip0_2_295)">
<path d="M0 41.4575H40C80 41.4575 160 41.4575 240 76.0486C320 110.121 400 180.081 480 193.425C560 207.287 640 165.83 720 165.83C800 165.83 880 207.287 960 214.154C1040 221.538 1120 193.036 1200 158.964C1280 124.372 1360 82.915 1440 89.7814C1520 97.166 1600 151.579 1680 186.559C1760 221.538 1840 234.494 1880 241.879L1920 248.745V414.575H1880C1840 414.575 1760 414.575 1680 414.575C1600 414.575 1520 414.575 1440 414.575C1360 414.575 1280 414.575 1200 414.575C1120 414.575 1040 414.575 960 414.575C880 414.575 800 414.575 720 414.575C640 414.575 560 414.575 480 414.575C400 414.575 320 414.575 240 414.575C160 414.575 80 414.575 40 414.575H0V41.4575Z" fill="#8367F1" fill-opacity="0.3"/>
</g>
<defs>
<clipPath id="clip0_2_295">
<rect width="1920" height="414.575" fill="white"/>
</clipPath>
</defs>
</svg>
